<svg width="54" height="32" viewBox="0 0 54 32" fill="none" xmlns="http://www.w3.org/2000/svg">
<g clip-path="url(#clip0_1_6803)">
<path d="M15.1349 11.6221C15.1349 12.2805 15.206 12.8144 15.3306 13.2059C15.473 13.5974 15.6509 14.0245 15.9001 14.4872C15.989 14.6295 16.0246 14.7719 16.0246 14.8965C16.0246 15.0744 15.9179 15.2524 15.6865 15.4303L14.5654 16.1778C14.4052 16.2845 14.2451 16.3379 14.1027 16.3379C13.9247 16.3379 13.7468 16.249 13.5688 16.0888C13.3197 15.8219 13.1061 15.5371 12.9282 15.2524C12.7502 14.9499 12.5723 14.6117 12.3765 14.2024C10.9885 15.8397 9.24447 16.6583 7.14458 16.6583C5.64974 16.6583 4.45743 16.2312 3.58544 15.377C2.71345 14.5228 2.26855 13.3838 2.26855 11.9602C2.26855 10.4475 2.80243 9.21964 3.88796 8.29427C4.9735 7.36889 6.41496 6.9062 8.24791 6.9062C8.85297 6.9062 9.47582 6.95959 10.1343 7.04857C10.7927 7.13755 11.4689 7.27991 12.1808 7.44007V6.14099C12.1808 4.78851 11.896 3.84534 11.3444 3.29367C10.7749 2.742 9.81394 2.47507 8.44367 2.47507C7.82082 2.47507 7.18017 2.54625 6.52173 2.70641C5.86329 2.86657 5.22264 3.06233 4.59979 3.31147C4.31506 3.43604 4.10151 3.50722 3.97694 3.54281C3.85237 3.5784 3.76339 3.5962 3.69221 3.5962C3.44307 3.5962 3.3185 3.41824 3.3185 3.04453V2.17254C3.3185 1.88781 3.35409 1.67426 3.44307 1.54969C3.53205 1.42512 3.69221 1.30055 3.94135 1.17598C4.5642 0.855659 5.31162 0.588723 6.18361 0.375175C7.0556 0.143831 7.98098 0.0370563 8.95974 0.0370563C11.0774 0.0370563 12.6257 0.517541 13.6222 1.47851C14.601 2.43948 15.0993 3.89873 15.0993 5.85625V11.6221H15.1349ZM7.9098 14.327C8.49705 14.327 9.10211 14.2202 9.74275 14.0067C10.3834 13.7931 10.9529 13.4016 11.4333 12.8678C11.7181 12.5296 11.9316 12.1559 12.0384 11.7288C12.1452 11.3017 12.2164 10.7857 12.2164 10.1806V9.43319C11.7003 9.30862 11.1486 9.20185 10.5792 9.13067C10.0097 9.05948 9.45802 9.02389 8.90636 9.02389C7.71404 9.02389 6.84205 9.25524 6.25479 9.73572C5.66754 10.2162 5.3828 10.8924 5.3828 11.7822C5.3828 12.6186 5.59635 13.2415 6.04125 13.6686C6.46834 14.1135 7.09119 14.327 7.9098 14.327ZM22.1998 16.249C21.8794 16.249 21.6659 16.1956 21.5235 16.071C21.3811 15.9642 21.2566 15.7151 21.1498 15.377L16.9678 1.62087C16.861 1.26496 16.8077 1.03362 16.8077 0.909046C16.8077 0.624315 16.95 0.464153 17.2347 0.464153H18.9787C19.3168 0.464153 19.5482 0.517541 19.6728 0.642111C19.8151 0.748885 19.9219 0.998025 20.0287 1.33614L23.0184 13.1169L25.7945 1.33614C25.8835 0.980229 25.9902 0.748885 26.1326 0.642111C26.275 0.535336 26.5241 0.464153 26.8444 0.464153H28.2681C28.6062 0.464153 28.8376 0.517541 28.9799 0.642111C29.1223 0.748885 29.2469 0.998025 29.318 1.33614L32.1298 13.2593L35.2084 1.33614C35.3152 0.980229 35.4398 0.748885 35.5643 0.642111C35.7067 0.535336 35.938 0.464153 36.2584 0.464153H37.9134C38.1981 0.464153 38.3583 0.606519 38.3583 0.909046C38.3583 0.998025 38.3405 1.087 38.3227 1.19378C38.3049 1.30055 38.2693 1.44292 38.1981 1.63867L33.9093 15.3948C33.8026 15.7507 33.678 15.982 33.5356 16.0888C33.3933 16.1956 33.1619 16.2667 32.8594 16.2667H31.329C30.9908 16.2667 30.7595 16.2134 30.6171 16.0888C30.4748 15.9642 30.3502 15.7329 30.279 15.377L27.5207 3.89873L24.7801 15.3592C24.6912 15.7151 24.5844 15.9464 24.442 16.071C24.2996 16.1956 24.0505 16.249 23.7302 16.249H22.1998ZM45.0672 16.7294C44.1419 16.7294 43.2165 16.6227 42.3267 16.4091C41.4369 16.1956 40.7429 15.9642 40.2802 15.6973C39.9955 15.5371 39.7997 15.3592 39.7285 15.199C39.6573 15.0388 39.6218 14.8609 39.6218 14.7007V13.7931C39.6218 13.4194 39.7641 13.2415 40.0311 13.2415C40.1378 13.2415 40.2446 13.2593 40.3514 13.2949C40.4582 13.3305 40.6183 13.4016 40.7963 13.4728C41.4013 13.7398 42.0598 13.9533 42.7538 14.0957C43.4656 14.238 44.1597 14.3092 44.8715 14.3092C45.9926 14.3092 46.8646 14.1135 47.4697 13.722C48.0747 13.3305 48.395 12.761 48.395 12.0314C48.395 11.5331 48.2349 11.1238 47.9146 10.7857C47.5942 10.4475 46.9892 10.145 46.1172 9.86029L43.5368 9.05948C42.2377 8.65018 41.2768 8.04513 40.6895 7.24432C40.1022 6.46131 39.7997 5.58932 39.7997 4.66394C39.7997 3.91652 39.9599 3.25808 40.2802 2.68862C40.6005 2.11915 41.0276 1.62087 41.5615 1.22937C42.0954 0.820068 42.7004 0.517541 43.4122 0.303992C44.1241 0.0904434 44.8715 0.00146484 45.6545 0.00146484C46.046 0.00146484 46.4553 0.0192606 46.8468 0.0726477C47.2561 0.126035 47.6298 0.197218 48.0035 0.268401C48.3594 0.357379 48.6976 0.446358 49.0179 0.553132C49.3382 0.659906 49.5874 0.766681 49.7653 0.873455C50.0145 1.01582 50.1924 1.15819 50.2992 1.31835C50.406 1.46071 50.4593 1.65647 50.4593 1.90561V2.742C50.4593 3.11571 50.317 3.31147 50.05 3.31147C49.9077 3.31147 49.6763 3.24028 49.3738 3.09792C48.3595 2.63523 47.2205 2.40389 45.957 2.40389C44.9427 2.40389 44.1419 2.56405 43.5902 2.90217C43.0385 3.24028 42.7538 3.75636 42.7538 4.48598C42.7538 4.98426 42.9318 5.41136 43.2877 5.74948C43.6436 6.0876 44.302 6.42572 45.2452 6.72824L47.7722 7.52905C49.0535 7.93835 49.9789 8.50782 50.5305 9.23744C51.0822 9.96706 51.3491 10.8035 51.3491 11.7288C51.3491 12.4941 51.189 13.1881 50.8864 13.7931C50.5661 14.3982 50.139 14.9321 49.5874 15.3592C49.0357 15.8041 48.3772 16.1244 47.612 16.3557C46.8112 16.6049 45.9748 16.7294 45.0672 16.7294Z" fill="#FAFAFF"/>
<path d="M48.4306 25.3784C42.5758 29.7028 34.0695 31.9984 26.7554 31.9984C16.5051 31.9984 7.26911 28.2079 0.293194 21.9082C-0.258473 21.41 0.239807 20.7337 0.898249 21.1252C8.44363 25.503 17.7508 28.1545 27.3783 28.1545C33.8737 28.1545 41.0098 26.8021 47.5764 24.0259C48.5552 23.581 49.3916 24.6666 48.4306 25.3784Z" fill="#FAFAFF"/>
<path d="M50.8686 22.6022C50.1212 21.6412 45.9214 22.1395 44.0173 22.3708C43.4478 22.442 43.3588 21.9437 43.8749 21.57C47.2205 19.221 52.7194 19.8972 53.36 20.6802C54.0007 21.481 53.1821 26.9799 50.05 29.6137C49.5695 30.023 49.1069 29.8094 49.3204 29.2756C50.0322 27.5138 51.6161 23.5453 50.8686 22.6022Z" fill="#FAFAFF"/>
</g>
<defs>
<clipPath id="clip0_1_6803">
<rect width="53.5117" height="32" fill="white" transform="translate(0.0617676)"/>
</clipPath>
</defs>
</svg>
