<svg width="111" height="111" viewBox="0 0 111 111" fill="none" xmlns="http://www.w3.org/2000/svg">
<g opacity="0.4">
<g filter="url(#filter0_f_2967_499)">
<circle cx="55.3768" cy="55.6146" r="8.30701" fill="#6852D6"/>
</g>
<g filter="url(#filter1_f_2967_499)">
<ellipse cx="54.5" cy="56" rx="9" ry="9" fill="url(#paint0_linear_2967_499)"/>
</g>
<g opacity="0.6" filter="url(#filter2_f_2967_499)">
<path fill-rule="evenodd" clip-rule="evenodd" d="M53.2071 64.9997C57.6341 64.9997 61.2228 61.4109 61.2228 56.984C61.2228 56.824 61.2181 56.6651 61.2089 56.5075C60.9776 60.2146 57.8976 63.1498 54.1322 63.1498C50.2161 63.1498 47.0415 59.9752 47.0415 56.0591C47.0415 52.293 49.9776 49.2127 53.6856 48.9823C53.5273 48.973 53.3678 48.9683 53.2071 48.9683C48.7802 48.9683 45.1914 52.557 45.1914 56.984C45.1914 61.4109 48.7802 64.9997 53.2071 64.9997Z" fill="#0A0914"/>
</g>
</g>
<defs>
<filter id="filter0_f_2967_499" x="0.0164261" y="0.254219" width="110.721" height="110.721" filterUnits="userSpaceOnUse" color-interpolation-filters="sRGB">
<feFlood flood-opacity="0" result="BackgroundImageFix"/>
<feBlend mode="normal" in="SourceGraphic" in2="BackgroundImageFix" result="shape"/>
<feGaussianBlur stdDeviation="23.5267" result="effect1_foregroundBlur_2967_499"/>
</filter>
<filter id="filter1_f_2967_499" x="41.5" y="43" width="26" height="26" filterUnits="userSpaceOnUse" color-interpolation-filters="sRGB">
<feFlood flood-opacity="0" result="BackgroundImageFix"/>
<feBlend mode="normal" in="SourceGraphic" in2="BackgroundImageFix" result="shape"/>
<feGaussianBlur stdDeviation="2" result="effect1_foregroundBlur_2967_499"/>
</filter>
<filter id="filter2_f_2967_499" x="9.83178" y="13.6086" width="86.7508" height="86.7505" filterUnits="userSpaceOnUse" color-interpolation-filters="sRGB">
<feFlood flood-opacity="0" result="BackgroundImageFix"/>
<feBlend mode="normal" in="SourceGraphic" in2="BackgroundImageFix" result="shape"/>
<feGaussianBlur stdDeviation="17.6798" result="effect1_foregroundBlur_2967_499"/>
</filter>
<linearGradient id="paint0_linear_2967_499" x1="66.6689" y1="45.7115" x2="46.8361" y2="55.995" gradientUnits="userSpaceOnUse">
<stop stop-color="#FCB8A8"/>
<stop offset="0.484375" stop-color="#B968A4"/>
<stop offset="1" stop-color="#756CF7"/>
</linearGradient>
</defs>
</svg>
