<svg width="1389" height="646" viewBox="0 0 1389 646" fill="none" xmlns="http://www.w3.org/2000/svg">
<circle cx="918" cy="234" r="1" fill="#6852D6"/>
<circle cx="920" cy="123" r="1" fill="#54535B"/>
<circle cx="744" cy="181" r="1" fill="#54535B"/>
<circle cx="804" cy="302" r="1" fill="#54535B"/>
<circle cx="685" cy="566" r="1" fill="#54535B"/>
<circle cx="1359" cy="114" r="1" fill="#54535B"/>
<circle cx="90" cy="98" r="1" fill="#6852D6"/>
<circle cx="204" cy="12" r="1" fill="#6852D6"/>
<circle cx="1075.5" cy="330.5" r="1.5" fill="#54535B"/>
<circle cx="1115.5" cy="493.5" r="1.5" fill="#54535B"/>
<circle cx="1200" cy="248" r="1" fill="#6852D6"/>
<circle cx="1052.5" cy="218.5" r="1.5" fill="#6852D6"/>
<circle opacity="0.5" cx="1099.5" cy="198.5" r="1.5" fill="#6852D6"/>
<circle cx="1316.5" cy="128.5" r="1.5" fill="#6852D6"/>
<circle cx="1128" cy="52" r="1" fill="#6852D6"/>
<circle opacity="0.5" cx="1316.5" cy="265.5" r="1.5" fill="#6852D6"/>
<circle cx="1268" cy="414" r="1" fill="#6852D6"/>
<circle cx="1334.5" cy="496.5" r="1.5" fill="#6852D6"/>
<circle cx="953" cy="543" r="1" fill="#6852D6"/>
<circle cx="1319" cy="623" r="1" fill="#6852D6"/>
<circle cx="1388" cy="585" r="1" fill="#6852D6"/>
<circle opacity="0.5" cx="161.5" cy="638.5" r="1.5" fill="#6852D6"/>
<circle cx="970.5" cy="274.5" r="1.5" fill="#45368D"/>
<circle cx="901.5" cy="458.5" r="1.5" fill="#45368D"/>
<circle cx="662" cy="464" r="1" fill="#6852D6"/>
<circle cx="827.5" cy="396.5" r="1.5" fill="#6852D6"/>
<circle cx="630.5" cy="125.5" r="1.5" fill="#6852D6"/>
<circle cx="743.5" cy="87.5" r="1.5" fill="#6852D6"/>
</svg>
