<svg width="39" height="38" viewBox="0 0 39 38" fill="none" xmlns="http://www.w3.org/2000/svg">
<rect x="0.666504" width="38" height="38" rx="19" fill="#FF7F3E" fill-opacity="0.12"/>
<path fill-rule="evenodd" clip-rule="evenodd" d="M19.6665 10.75C15.1102 10.75 11.4165 14.4437 11.4165 19C11.4165 23.5563 15.1102 27.25 19.6665 27.25C24.2229 27.25 27.9165 23.5563 27.9165 19C27.9165 14.4437 24.2229 10.75 19.6665 10.75ZM18.8465 16.2034C19.1519 16.0239 19.5109 15.9583 19.8601 16.0182C20.2092 16.0781 20.5259 16.2596 20.754 16.5306C20.9822 16.8016 21.107 17.1446 21.1065 17.4989L21.1065 17.5C21.1065 17.8518 20.8327 18.2186 20.3155 18.5634C20.0797 18.7206 19.8386 18.8417 19.6535 18.924C19.562 18.9647 19.4868 18.9947 19.4362 19.0139C19.4137 19.0225 19.3912 19.0308 19.3685 19.0387C18.9761 19.17 18.7641 19.5944 18.895 19.9871C19.026 20.3801 19.4507 20.5925 19.8437 20.4615L19.9702 20.4157C20.0427 20.3881 20.1432 20.3478 20.2627 20.2947C20.4994 20.1895 20.8208 20.0293 21.1475 19.8115C21.7552 19.4064 22.6062 18.6484 22.6065 17.5007C22.6075 16.7923 22.3577 16.1065 21.9016 15.5646C21.4453 15.0226 20.812 14.6596 20.1137 14.5398C19.4154 14.42 18.6973 14.5512 18.0865 14.9102C17.4757 15.2692 17.0116 15.8328 16.7765 16.5011C16.639 16.8918 16.8444 17.32 17.2351 17.4575C17.6259 17.5949 18.054 17.3896 18.1915 16.9989C18.3091 16.6647 18.5411 16.3829 18.8465 16.2034ZM19.6665 22C19.2523 22 18.9165 22.3358 18.9165 22.75C18.9165 23.1642 19.2523 23.5 19.6665 23.5H19.674C20.0882 23.5 20.424 23.1642 20.424 22.75C20.424 22.3358 20.0882 22 19.674 22H19.6665Z" fill="#FF7F3E"/>
</svg>
