<svg width="38" height="38" viewBox="0 0 38 38" fill="none" xmlns="http://www.w3.org/2000/svg">
<rect width="38" height="38" rx="19" fill="#FF7F3E" fill-opacity="0.12"/>
<path fill-rule="evenodd" clip-rule="evenodd" d="M12.2833 24.4389C12.3177 24.8604 12.3916 25.248 12.5771 25.612C12.8647 26.1765 13.3237 26.6354 13.8881 26.923C14.2521 27.1085 14.6397 27.1824 15.0612 27.2169C15.4671 27.25 15.9654 27.25 16.5691 27.25H22.629C23.0244 27.25 23.3655 27.25 23.6464 27.2271C23.9429 27.2028 24.2378 27.1494 24.5216 27.0048C24.945 26.789 25.2892 26.4448 25.5049 26.0215C25.6495 25.7377 25.703 25.4428 25.7272 25.1463C25.7478 24.8944 25.7501 24.5944 25.7501 24.25C25.7501 20.7904 25.7501 17.3307 25.7501 13.8711C25.7501 13.4757 25.7501 13.1347 25.7272 12.8537C25.703 12.5572 25.6495 12.2623 25.5049 11.9785C25.2892 11.5552 24.945 11.211 24.5216 10.9952C24.2378 10.8506 23.9429 10.7972 23.6464 10.7729C23.3655 10.75 23.0244 10.75 22.6291 10.75H16.5691C15.9654 10.75 15.4671 10.75 15.0612 10.7831C14.6397 10.8176 14.2521 10.8915 13.8881 11.077C13.3237 11.3646 12.8647 11.8235 12.5771 12.388C12.3916 12.752 12.3177 13.1396 12.2833 13.5611C12.2501 13.967 12.2501 14.4653 12.2501 15.069V22.931C12.2501 23.4342 12.2423 23.9376 12.2833 24.4389ZM24.2322 25.0241C24.2155 25.2279 24.1873 25.3034 24.1684 25.3405C24.0965 25.4816 23.9817 25.5964 23.8406 25.6683C23.8035 25.6871 23.728 25.7154 23.5242 25.7321C23.3117 25.7494 23.0325 25.75 22.6001 25.75H16.6001C15.9577 25.75 15.521 25.7494 15.1834 25.7218C14.8546 25.695 14.6864 25.6463 14.5691 25.5865C14.2869 25.4427 14.0574 25.2132 13.9136 24.931C13.7792 24.6672 13.7128 24.4389 13.7627 24.0547C13.8584 23.3186 14.4879 22.75 15.2501 22.75H24.2501C24.2501 23.5038 24.2936 24.2722 24.2322 25.0241Z" fill="#FF7F3E"/>
</svg>
