<svg width="39" height="38" viewBox="0 0 39 38" fill="none" xmlns="http://www.w3.org/2000/svg">
<rect x="0.666504" width="38" height="38" rx="19" fill="#6852D6" fill-opacity="0.12"/>
<path fill-rule="evenodd" clip-rule="evenodd" d="M24.0454 11.5H15.2876C14.8922 11.5 14.5512 11.5 14.2702 11.5229C13.9737 11.5472 13.6788 11.6006 13.395 11.7452C12.9717 11.961 12.6275 12.3052 12.4117 12.7285C12.2671 13.0123 12.2137 13.3072 12.1894 13.6037C12.1665 13.8847 12.1665 14.2257 12.1665 14.6211V23.3789C12.1665 23.7743 12.1665 24.1154 12.1894 24.3963C12.2137 24.6928 12.2671 24.9877 12.4117 25.2715C12.6275 25.6948 12.9717 26.0391 13.395 26.2548C13.6788 26.3994 13.9737 26.4528 14.2702 26.4771C14.5512 26.5 14.8922 26.5 15.2876 26.5H24.0454C24.4408 26.5 24.7819 26.5 25.0628 26.4771C25.3593 26.4528 25.6542 26.3994 25.938 26.2548C26.3613 26.0391 26.7056 25.6948 26.9213 25.2715C27.0659 24.9877 27.1194 24.6928 27.1436 24.3963C27.1665 24.1153 27.1665 23.7743 27.1665 23.3789V14.6211C27.1665 14.2257 27.1665 13.8847 27.1436 13.6037C27.1194 13.3072 27.0659 13.0123 26.9213 12.7285C26.7056 12.3052 26.3613 11.961 25.938 11.7452C25.6542 11.6006 25.3593 11.5472 25.0628 11.5229C24.7819 11.5 24.4408 11.5 24.0454 11.5ZM18.6968 15.7803C18.9897 15.4874 18.9897 15.0126 18.6968 14.7197C18.4039 14.4268 17.9291 14.4268 17.6362 14.7197L15.3862 16.9697C15.0933 17.2626 15.0933 17.7374 15.3862 18.0303L17.6362 20.2803C17.9291 20.5732 18.4039 20.5732 18.6968 20.2803C18.9897 19.9874 18.9897 19.5126 18.6968 19.2197L16.9772 17.5L18.6968 15.7803ZM21.6968 17.7197C21.4039 17.4268 20.9291 17.4268 20.6362 17.7197C20.3433 18.0126 20.3433 18.4874 20.6362 18.7803L22.3558 20.5L20.6362 22.2197C20.3433 22.5126 20.3433 22.9874 20.6362 23.2803C20.9291 23.5732 21.4039 23.5732 21.6968 23.2803L23.9468 21.0303C24.2397 20.7374 24.2397 20.2626 23.9468 19.9697L21.6968 17.7197Z" fill="#6852D6"/>
</svg>
