<svg width="39" height="38" viewBox="0 0 39 38" fill="none" xmlns="http://www.w3.org/2000/svg">
<rect x="0.666504" width="38" height="38" rx="19" fill="#FF7F3E" fill-opacity="0.12"/>
<path d="M16.0685 15.402C13.4039 16.0137 11.4165 18.3998 11.4165 21.25C11.4165 24.5637 14.1028 27.25 17.4165 27.25C20.2667 27.25 22.6528 25.2626 23.2645 22.598C23.364 22.1647 23.4165 21.7135 23.4165 21.25C23.4165 17.9363 20.7302 15.25 17.4165 15.25C16.953 15.25 16.5018 15.3026 16.0685 15.402Z" fill="#FF7F3E"/>
<path d="M16.6998 13.7838C16.9357 13.7614 17.1748 13.75 17.4165 13.75C21.5586 13.75 24.9165 17.1079 24.9165 21.25C24.9165 21.4917 24.9051 21.7308 24.8827 21.9667C26.6947 20.9342 27.9165 18.9848 27.9165 16.75C27.9165 13.4363 25.2302 10.75 21.9165 10.75C19.6817 10.75 17.7323 11.9718 16.6998 13.7838Z" fill="#FF7F3E"/>
</svg>
