<svg width="39" height="38" viewBox="0 0 39 38" fill="none" xmlns="http://www.w3.org/2000/svg">
<rect x="0.666504" width="38" height="38" rx="19" fill="#FF7F3E" fill-opacity="0.12"/>
<path fill-rule="evenodd" clip-rule="evenodd" d="M11.4165 19C11.4165 14.4437 15.1102 10.75 19.6665 10.75C24.2229 10.75 27.9165 14.4437 27.9165 19C27.9165 23.5563 24.2229 27.25 19.6665 27.25C15.1102 27.25 11.4165 23.5563 11.4165 19ZM20.4165 14.5C20.4165 14.0858 20.0807 13.75 19.6665 13.75C19.2523 13.75 18.9165 14.0858 18.9165 14.5V19C18.9165 19.2841 19.077 19.5438 19.3311 19.6708L22.3311 21.1708C22.7016 21.3561 23.1521 21.2059 23.3373 20.8354C23.5226 20.4649 23.3724 20.0144 23.0019 19.8292L20.4165 18.5365V14.5Z" fill="#FF7F3E"/>
</svg>
