<svg width="1192" height="303" viewBox="0 0 1192 303" fill="none" xmlns="http://www.w3.org/2000/svg">
<path d="M597.315 43.519C413.254 77.5134 260.685 120.768 155.928 164.307C103.546 186.079 63.1435 207.911 36.7379 228.677C23.5347 239.06 13.8526 249.16 7.91682 258.832C1.98338 268.5 -0.189264 277.712 1.56324 286.349C3.31577 294.986 8.92711 302.723 18.2005 309.52C27.4778 316.32 40.3935 322.158 56.6832 326.988C89.2619 336.647 135.229 342.247 192.288 343.522C306.398 346.074 464.754 331.337 648.816 297.342C832.877 263.347 971.972 222.165 1063.25 180.702C1108.9 159.968 1142.56 139.176 1163.91 119.199C1185.27 99.2094 1194.22 80.1303 1190.7 62.7948C1187.18 45.4632 1171.5 31.2832 1143.96 20.8495C1116.44 10.4221 1077.22 3.79091 1026.9 1.4804C926.261 -3.14022 781.378 9.52407 597.315 43.519Z" stroke="url(#paint0_radial_2967_555)" stroke-opacity="0.12"/>
<path d="M597.315 43.519C413.254 77.5134 260.685 120.768 155.928 164.307C103.546 186.079 63.1435 207.911 36.7379 228.677C23.5347 239.06 13.8526 249.16 7.91682 258.832C1.98338 268.5 -0.189264 277.712 1.56324 286.349C3.31577 294.986 8.92711 302.723 18.2005 309.52C27.4778 316.32 40.3935 322.158 56.6832 326.988C89.2619 336.647 135.229 342.247 192.288 343.522C306.398 346.074 464.754 331.337 648.816 297.342C832.877 263.347 971.972 222.165 1063.25 180.702C1108.9 159.968 1142.56 139.176 1163.91 119.199C1185.27 99.2094 1194.22 80.1303 1190.7 62.7948C1187.18 45.4632 1171.5 31.2832 1143.96 20.8495C1116.44 10.4221 1077.22 3.79091 1026.9 1.4804C926.261 -3.14022 781.378 9.52407 597.315 43.519Z" stroke="url(#paint1_radial_2967_555)" stroke-opacity="0.12"/>
<defs>
<radialGradient id="paint0_radial_2967_555" cx="0" cy="0" r="1" gradientUnits="userSpaceOnUse" gradientTransform="translate(123.33 339.425) rotate(-43.8961) scale(331.523 1071.93)">
<stop stop-color="white"/>
<stop offset="1" stop-color="white" stop-opacity="0"/>
</radialGradient>
<radialGradient id="paint1_radial_2967_555" cx="0" cy="0" r="1" gradientUnits="userSpaceOnUse" gradientTransform="translate(31.1926 321.279) rotate(-66.1941) scale(48.9738 228.08)">
<stop stop-color="white" stop-opacity="0.6"/>
<stop offset="1" stop-color="white" stop-opacity="0"/>
</radialGradient>
</defs>
</svg>
