<svg width="112" height="111" viewBox="0 0 112 111" fill="none" xmlns="http://www.w3.org/2000/svg">
<g opacity="0.4">
<g filter="url(#filter0_f_2967_557)">
<circle cx="56.1854" cy="55.6146" r="8.30701" fill="#6852D6"/>
</g>
<g filter="url(#filter1_f_2967_557)">
<ellipse cx="55.3086" cy="56" rx="9" ry="9" fill="url(#paint0_linear_2967_557)"/>
</g>
<g opacity="0.6" filter="url(#filter2_f_2967_557)">
<path fill-rule="evenodd" clip-rule="evenodd" d="M54.0157 64.9997C58.4427 64.9997 62.0314 61.4109 62.0314 56.984C62.0314 56.824 62.0267 56.6651 62.0175 56.5075C61.7862 60.2146 58.7062 63.1498 54.9408 63.1498C51.0247 63.1498 47.8501 59.9752 47.8501 56.0591C47.8501 52.293 50.7862 49.2127 54.4942 48.9823C54.3359 48.973 54.1764 48.9683 54.0157 48.9683C49.5888 48.9683 46 52.557 46 56.984C46 61.4109 49.5888 64.9997 54.0157 64.9997Z" fill="#0A0914"/>
</g>
</g>
<defs>
<filter id="filter0_f_2967_557" x="0.82502" y="0.254219" width="110.721" height="110.721" filterUnits="userSpaceOnUse" color-interpolation-filters="sRGB">
<feFlood flood-opacity="0" result="BackgroundImageFix"/>
<feBlend mode="normal" in="SourceGraphic" in2="BackgroundImageFix" result="shape"/>
<feGaussianBlur stdDeviation="23.5267" result="effect1_foregroundBlur_2967_557"/>
</filter>
<filter id="filter1_f_2967_557" x="42.3086" y="43" width="26" height="26" filterUnits="userSpaceOnUse" color-interpolation-filters="sRGB">
<feFlood flood-opacity="0" result="BackgroundImageFix"/>
<feBlend mode="normal" in="SourceGraphic" in2="BackgroundImageFix" result="shape"/>
<feGaussianBlur stdDeviation="2" result="effect1_foregroundBlur_2967_557"/>
</filter>
<filter id="filter2_f_2967_557" x="10.6404" y="13.6086" width="86.7508" height="86.7505" filterUnits="userSpaceOnUse" color-interpolation-filters="sRGB">
<feFlood flood-opacity="0" result="BackgroundImageFix"/>
<feBlend mode="normal" in="SourceGraphic" in2="BackgroundImageFix" result="shape"/>
<feGaussianBlur stdDeviation="17.6798" result="effect1_foregroundBlur_2967_557"/>
</filter>
<linearGradient id="paint0_linear_2967_557" x1="67.4775" y1="45.7115" x2="47.6447" y2="55.995" gradientUnits="userSpaceOnUse">
<stop stop-color="#FCB8A8"/>
<stop offset="0.484375" stop-color="#B968A4"/>
<stop offset="1" stop-color="#756CF7"/>
</linearGradient>
</defs>
</svg>
